<?xml version="1.0" encoding="UTF-8"?>
<svg id="Layer_2" data-name="Layer 2" xmlns="http://www.w3.org/2000/svg" xmlns:xlink="http://www.w3.org/1999/xlink" viewBox="0 0 561.18 663.82">
  <defs>
    <style>
      .cls-1 {
        fill: #ec008c;
      }

      .cls-1, .cls-2, .cls-3, .cls-4 {
        stroke: #231f20;
        stroke-miterlimit: 10;
      }

      .cls-2 {
        fill: #603913;
      }

      .cls-5 {
        fill: #be1e2d;
      }

      .cls-6 {
        fill: #2e3192;
      }

      .cls-3 {
        fill: #3c2415;
      }

      .cls-4, .cls-7 {
        fill: #fff200;
      }

      .cls-8 {
        mask: url(#mask);
      }
    </style>
    <filter id="luminosity-noclip-2" data-name="luminosity-noclip" x="8433.54" y="-8604.99" width="-32766" height="32766" color-interpolation-filters="sRGB" filterUnits="userSpaceOnUse">
      <feFlood flood-color="#fff" result="bg"/>
      <feBlend in="SourceGraphic" in2="bg"/>
    </filter>
    <mask id="mask" x="8433.54" y="-8604.99" width="-32766" height="32766" maskUnits="userSpaceOnUse"/>
  </defs>
  <g id="Layer_1-2" data-name="Layer 1">
    <polygon class="cls-1" points="241.54 496.33 481.54 537.99 241.54 662.99 1.54 537.99 241.54 496.33"/>
    <polygon class="cls-2" points="1.54 447.99 241.54 482.99 241.54 662.99 1.54 537.99 1.54 447.99"/>
    <polygon class="cls-2" points="480.3 448.17 241.54 482.99 241.54 662.99 480.3 538.64 480.3 448.17"/>
    <polygon class="cls-4" points="243.3 436.27 480.3 447.65 239.47 481.99 2.18 447.96 243.3 436.27"/>
    <polygon class="cls-2" points="241.54 162.99 1.54 287.99 1.54 207.04 241.54 1.09 241.54 162.99"/>
    <polygon class="cls-3" points="241.54 1.09 482.28 207.67 482.28 288.38 241.54 162.99 241.54 1.09"/>
    <text/>
    <polygon class="cls-7" points="242.09 329.95 481.06 288.92 242.34 164.2 1.55 288.03 242.09 329.95"/>
    <g class="cls-8">
      <g id="Perspective_Text" data-name="Perspective Text">
        <g>
          <path d="M24.47,424.75l-11.15-98.04,5.88-2.01,5.34,49.72c1.37,12.56,2.61,25.26,3.45,35.18h.14c.77-10.31,2.26-22.75,3.91-36.43l6.64-55.14,7.06-2.42,6.68,54.89c1.59,13.22,3.12,26.58,3.97,38.57h.17c1.2-12.62,2.86-25.55,4.7-40.2l8.09-61.34,8.53-2.92-17.77,121.75-7.78-.35-6.91-57.58c-1.66-13.69-2.75-24.13-3.45-34.92l-.15,.04c-.93,11.02-2.07,21.86-3.97,36.06l-7.03,55.43-6.34-.28Z"/>
          <path d="M127.2,362.93l-31.52,4.32v46.67l35.52,.1v15.51l-44.82-2v-125.84l42.81-14.67v15.43l-33.51,10.08v40.91l31.52-5.62v15.13Z"/>
          <path d="M147.06,282.88c5.64-3.7,14.9-8.25,24.77-11.66,14.95-5.17,25.16-4.94,33.14,1.03,6.88,4.55,11.12,13.72,11.12,27.56,0,16.98-8.58,33.41-22.07,42.28v.5c12.12,2.12,27.21,13.8,27.21,40.22,0,15.32-4.74,26.98-11.56,35.53-9.11,10.74-23.07,15.12-41.78,14.21-9.53-.46-16.53-1.69-20.83-2.78v-146.91Zm13.17,58.8l12.76-2.28c15.93-2.85,25.87-16.69,25.87-33.03,0-19.86-11.02-24.27-26.2-19.6-6.55,2.01-10.22,3.83-12.43,5.19v49.73Zm0,74.02c2.68,.71,6.68,.98,11.76,1.02,15.49,.14,30.86-8.09,30.86-32.95,0-23.34-14.65-30.91-31.02-28.6l-11.6,1.63v58.89Z"/>
        </g>
        <g>
          <path class="cls-6" d="M24.47,424.75l-11.15-98.04,5.88-2.01,5.34,49.72c1.37,12.56,2.61,25.26,3.45,35.18h.14c.77-10.31,2.26-22.75,3.91-36.43l6.64-55.14,7.06-2.42,6.68,54.89c1.59,13.22,3.12,26.58,3.97,38.57h.17c1.2-12.62,2.86-25.55,4.7-40.2l8.09-61.34,8.53-2.92-17.77,121.75-7.78-.35-6.91-57.58c-1.66-13.69-2.75-24.13-3.45-34.92l-.15,.04c-.93,11.02-2.07,21.86-3.97,36.06l-7.03,55.43-6.34-.28Z"/>
          <path class="cls-6" d="M127.2,362.93l-31.52,4.32v46.67l35.52,.1v15.51l-44.82-2v-125.84l42.81-14.67v15.43l-33.51,10.08v40.91l31.52-5.62v15.13Z"/>
          <path class="cls-6" d="M147.06,282.88c5.64-3.7,14.9-8.25,24.77-11.66,14.95-5.17,25.16-4.94,33.14,1.03,6.88,4.55,11.12,13.72,11.12,27.56,0,16.98-8.58,33.41-22.07,42.28v.5c12.12,2.12,27.21,13.8,27.21,40.22,0,15.32-4.74,26.98-11.56,35.53-9.11,10.74-23.07,15.12-41.78,14.21-9.53-.46-16.53-1.69-20.83-2.78v-146.91Zm13.17,58.8l12.76-2.28c15.93-2.85,25.87-16.69,25.87-33.03,0-19.86-11.02-24.27-26.2-19.6-6.55,2.01-10.22,3.83-12.43,5.19v49.73Zm0,74.02c2.68,.71,6.68,.98,11.76,1.02,15.49,.14,30.86-8.09,30.86-32.95,0-23.34-14.65-30.91-31.02-28.6l-11.6,1.63v58.89Z"/>
        </g>
      </g>
    </g>
    <text/>
    <g id="Perspective_Text-2" data-name="Perspective Text">
      <g>
        <path d="M291.25,270.69v63.89l35.94,6.55v-58.55l8.69,2.88v136.85l-8.69,.21v-65.61l-35.94-5.11v71.59l-10.73,.26v-156.5l10.73,3.55Z"/>
        <path d="M361.07,307.83l-18.18-5.3v-14.75l41.4,13.69v13.14l-15.94-4.65v111.57l-7.28,.18v-113.87Z"/>
        <path d="M425.93,374.06c-.28-14.68-.63-32.37-.57-45.45l-.17-.05c-1.32,12.01-2.94,24.85-4.93,39.2l-7.18,52.03-4.13,.09-7.08-53.87c-2.14-16.41-3.97-31.59-5.26-45.6l-.14-.04c-.14,14.34-.48,33.63-.89,50.89l-1.25,49.63-5.88,.14,3.35-117.09,7.66,2.53,7.57,56.48c1.79,13.95,3.24,26.25,4.31,37.76h.19c1.06-11.01,2.54-22.88,4.37-36.35l7.11-50.11,6.29,2.08,2.31,103.65-4.72,.11-.96-46.04Z"/>
        <path d="M438.75,319.47l4.45,1.47v88.07l13.78,.2v10.17l-18.23,.44v-100.35Z"/>
      </g>
      <g>
        <path class="cls-5" d="M291.25,270.69v63.89l35.94,6.55v-58.55l8.69,2.88v136.85l-8.69,.21v-65.61l-35.94-5.11v71.59l-10.73,.26v-156.5l10.73,3.55Z"/>
        <path class="cls-5" d="M361.07,307.83l-18.18-5.3v-14.75l41.4,13.69v13.14l-15.94-4.65v111.57l-7.28,.18v-113.87Z"/>
        <path class="cls-5" d="M425.93,374.06c-.28-14.68-.63-32.37-.57-45.45l-.17-.05c-1.32,12.01-2.94,24.85-4.93,39.2l-7.18,52.03-4.13,.09-7.08-53.87c-2.14-16.41-3.97-31.59-5.26-45.6l-.14-.04c-.14,14.34-.48,33.63-.89,50.89l-1.25,49.63-5.88,.14,3.35-117.09,7.66,2.53,7.57,56.48c1.79,13.95,3.24,26.25,4.31,37.76h.19c1.06-11.01,2.54-22.88,4.37-36.35l7.11-50.11,6.29,2.08,2.31,103.65-4.72,.11-.96-46.04Z"/>
        <path class="cls-5" d="M438.75,319.47l4.45,1.47v88.07l13.78,.2v10.17l-18.23,.44v-100.35Z"/>
      </g>
    </g>
  </g>
</svg>